<?xml version="1.0" encoding="utf-8"?>
<!-- Generator: Adobe Illustrator 27.2.0, SVG Export Plug-In . SVG Version: 6.00 Build 0)  -->
<svg version="1.1" id="Sidewalk_Wall" xmlns="http://www.w3.org/2000/svg" xmlns:xlink="http://www.w3.org/1999/xlink" x="0px"
	 y="0px" viewBox="0 0 256 512" style="enable-background:new 0 0 256 512;" xml:space="preserve">
<style type="text/css">
	.st0{display:none;fill:#CBA39F;}
	.st1{display:none;}
	.st2{display:inline;fill:#BBBCBE;}
	.st3{display:inline;fill:#EAE9EB;}
	.st4{display:inline;fill:#D1DDF1;}
	.st5{fill:#FDFFF1;}
	.st6{fill:#DADEC2;}
</style>
<image style="display:none;overflow:visible;enable-background:new    ;" width="1276" height="891" xlink:href="C:\Users\ThyThal\Downloads\restaurant-city-screenshot-3.jpg"  transform="matrix(3.2385 0 0 3.2385 -132.8416 -688.6667)">
</image>
<polygon id="Sidewalk" class="st0" points="128,384 0,448 102,499 128,512 256,448 230,435 "/>
<g id="Wall" class="st1">
	<polygon id="Back" class="st2" points="256,64 256,448 230,461 230,77 	"/>
	<polygon id="Top_00000064328063340239924460000005442883191297345207_" class="st3" points="256,448 128,512 102,499 230,435 	"/>
	<polygon id="Top" class="st3" points="256,64 128,128 102,115 230,51 	"/>
	<polygon id="Front" class="st2" points="128,128 128,512 102,499 102,115 	"/>
	<polygon id="Paint" class="st4" points="256,64 256,448 128,512 128,128 	"/>
</g>
<g>
	<polygon class="st5" points="256,140 256,448 136,508 136,200 	"/>
	<polygon class="st6" points="256,140 136,200 136,508 128,504 128,196 248,136 	"/>
</g>
<path class="st6" d="M160,220v252l72-36V184L160,220z M224,432l-56,28V224l56-28V432z"/>
<image style="display:none;overflow:visible;enable-background:new    ;" width="2026" height="1001" xlink:href="5E28D4FF.png"  transform="matrix(3.271 0 0 3.271 -5413.2925 128)">
</image>
</svg>
