<?xml version="1.0" encoding="UTF-8"?>
<svg id="Sidewalk_Wall" data-name="Sidewalk Wall" xmlns="http://www.w3.org/2000/svg" viewBox="0 0 256 512">
  <defs>
    <style>
      .cls-1 {
        fill: #eae9eb;
      }

      .cls-2 {
        fill: #cba39f;
      }

      .cls-3 {
        fill: #d1ddf1;
      }

      .cls-4 {
        fill: #bbbcbe;
      }
    </style>
  </defs>
  <polygon id="Sidewalk" class="cls-2" points="128 384 0 448 102 499 128 512 256 448 230 435 128 384"/>
  <g id="Wall">
    <polygon class="cls-1" points="102 499 128 486 128 512 102 499"/>
    <polygon class="cls-1" points="230 443.12 247.89 452.06 230 461 136 508 136 482 221.89 439.06 230 443.12"/>
    <polygon class="cls-1" points="256 448 248 452 247.89 452.06 247.89 443.95 248 444 256 448"/>
    <polygon class="cls-4" points="256 64 256 448 248 452 247.89 452.06 247.89 152.06 230 161 230 77 247.89 68.06 256 64"/>
    <polygon id="Top" class="cls-1" points="256 64 128 128 102 115 230 51 256 64"/>
    <polygon id="Front" class="cls-4" points="128 128 128 512 102 499 102 115 128 128"/>
    <polygon class="cls-3" points="256 64 256 448 248 452 248 152 247.89 152.06 230 161 221.89 165.06 136 208 136 508 128 512 128 128 221.89 81.06 230 77 247.89 68.06 256 64"/>
  </g>
  <polygon class="cls-4" points="247.89 152.06 247.89 452.06 230 443.12 221.89 439.06 221.89 165.06 230 161 247.89 152.06"/>
</svg>